<?xml version="1.0" standalone="no"?><!DOCTYPE svg PUBLIC "-//W3C//DTD SVG 1.1//EN" "http://www.w3.org/Graphics/SVG/1.1/DTD/svg11.dtd"><svg t="1636681404128" class="icon" viewBox="0 0 1024 1024" version="1.1" xmlns="http://www.w3.org/2000/svg" p-id="5730" xmlns:xlink="http://www.w3.org/1999/xlink" width="200" height="200"><defs><style type="text/css"></style></defs><path d="M885.6954441 842.39668048l-31.11769291-83.2855898c58.57448076-98.84443627-30.20246662-435.64770059-33.86337168-451.20654704-43.93086055-113.48805645-120.80986655-172.06253721-223.31520787-169.31685842H471.09794753c-101.59011504-1.83045253-179.3843473 55.82880198-224.23043411 170.23208468-3.66090506 15.55884645-98.84443627 377.07321982-26.54156159 460.35880966 0.91522626 0.91522626 1.83045253 1.83045253 3.66090505 1.83045251l-21.9654303 59.489707-2.74567876 8.23703634v1.83045256c0 2.74567878-0.91522626 5.49135757-0.91522628 8.23703635v2.74567877c0 1.83045253 0 3.66090506 0.91522628 6.40658385 0 0.91522626 0 1.83045253 0.91522624 2.74567878 0.91522626 2.74567878 1.83045253 5.49135757 2.74567879 7.32181011v0.91522625s0 0.91522626 0.91522626 0.91522626c0.91522626 2.74567878 2.74567878 4.5761313 3.66090505 7.32181009 0 0 0 0.91522626 0.91522626 0.91522627 1.83045253 2.74567878 3.66090506 4.5761313 5.49135759 6.40658383l0.91522625 0.91522625c1.83045253 1.83045253 4.5761313 3.66090506 7.32181011 5.49135756l0.91522625 0.91522627c4.5761313 2.74567878 10.06748889 5.49135757 16.47407269 6.40658383h1.83045253c2.74567878 0 5.49135757 0.91522626 8.23703636 0.91522626h6.40658383c4.5761313 1.83045253 9.15226261 2.74567878 13.72839391 2.7456788H844.51026229c30.20246662 0.91522626 51.25267068-30.20246662 41.18518181-59.48970702z m-291.04195123-681.84356498c0 4.5761313-0.91522626 6.40658382-0.91522625 7.32181011l-8.23703636-8.23703638c-1.83045253-1.83045253-2.74567878-3.66090506-4.57613135-4.57613131l-1.8304525-1.83045251h15.55884646v7.32181009z m-32.94814543 0c-0.91522626 1.83045253-0.91522626 2.74567878-1.83045252 5.49135756s-2.74567878 8.23703635-3.66090506 10.06748889c0 0-0.91522626-0.91522626-0.91522626-1.83045253-1.83045253-2.74567878-3.66090506-5.49135757-4.5761313-8.23703636 0-0.91522626-0.91522626-0.91522626-0.91522627-0.91522627-0.91522626-1.83045253-1.83045253-2.74567878-1.83045253-3.66090504v-0.91522625c-0.91522626-1.83045253-1.83045253-2.74567878-2.74567877-3.66090505-0.91522626-1.83045253-1.83045253-2.74567878-2.74567879-2.74567879h22.88065655c-1.83045253 0.91522626-2.74567878 2.74567878-3.66090505 6.40658384z m-31.11769289-5.49135758c-1.83045253 1.83045253-3.66090506 4.5761313-6.40658383 10.06748887l-0.91522628 0.91522627c-0.91522626 1.83045253-1.83045253 3.66090506-2.74567877 4.57613132-0.91522626 1.83045253-1.83045253 2.74567878-2.74567879 3.66090504-1.83045253-0.91522626-2.74567878-6.40658382-3.66090504-10.06748889 0-0.91522626-0.91522626-1.83045253-0.91522626-2.74567878-0.91522626-1.83045253-0.91522626-3.66090506-1.83045252-5.49135758 0-0.91522626-0.91522626-1.83045253-0.91522626-2.74567876h21.96543027c-0.91522626 0-0.91522626 0.91522626-1.83045252 1.83045251z m-43.93086056 4.57613131l-2.74567877 2.74567879-4.57613134 4.5761313c-0.91522626-0.91522626-0.91522626-1.83045253-1.83045253-6.40658382V152.31607915h14.64362021c-0.91522626 2.74567878-2.74567878 4.5761313-5.49135757 7.32181008z m319.41396533 152.84278571c0.91522626 3.66090506 85.11604236 323.07487041 41.18518176 428.32589047l-199.51932503-531.74645803c-0.91522626-0.91522626-0.91522626-2.74567878-1.83045253-3.66090505-0.91522626 2.74567878-1.83045253 4.5761313-4.57613132 5.49135757h-0.91522625l-4.57613131-11.8979414-0.91522627-2.7456788c-0.91522626-0.91522626-0.91522626-2.74567878-0.91522623-3.66090502 0-0.91522626-0.91522626-1.83045253-0.91522628-2.7456788-0.91522626-2.74567878-1.83045253-4.5761313-3.66090505-7.3218101-0.91522626-1.83045253-1.83045253-2.74567878-2.74567877-4.57613129-0.91522626-1.83045253-2.74567878-3.66090506-3.66090506-5.49135758-1.83045253-1.83045253-2.74567878-3.66090506-4.57613129-6.40658385-0.91522626-0.91522626-1.83045253-1.83045253-2.74567881-3.66090504l-8.23703635-8.23703636-2.74567878-1.83045251c91.52262617 1.83045253 161.07982207 56.74402823 201.34977757 160.16459579z m-545.47485198 0C302.69631539 206.31442859 374.08396377 151.40085287 469.26749502 153.23130541l-3.66090507 3.66090504c-11.8979414 10.98271516-21.05020402 24.71110907-26.54156157 40.26995552L423.50618193 237.43212148l-17.38929897 46.67653936-177.55389477 472.25675103c-62.2353858-82.37036355 31.1176929-440.2238319 32.03291915-443.88473693z" fill="#C4ADAD" p-id="5731"></path><path d="M776.78351896 873.51437339H202.02142658c-5.49135757 0-10.98271516-0.91522626-15.55884646-2.7456788-21.96543027-8.23703635-34.77859794-32.94814542-25.62633532-56.74402823l237.95882806-633.33657311c5.49135757-15.55884645 14.64362017-28.37201411 24.71110907-37.52427671 0 5.49135757 1.83045253 10.98271516 7.32181009 12.81316763 4.5761313 0.91522626 8.23703635-3.66090506 14.64362019-10.06748887 2.74567878-3.66090506 8.23703635-10.06748889 10.06748886-10.06748887 0.91522626 0.91522626 3.66090506 7.3218101 4.57613131 10.98271514 2.74567878 9.15226261 4.5761313 16.4740727 10.06748889 17.38929896 4.5761313 0.91522626 8.23703635-5.49135757 12.81316765-13.72839392 1.83045253-3.66090506 5.49135757-10.06748889 7.32181012-10.98271514 1.83045253 0.91522626 4.5761313 7.3218101 6.40658383 10.98271514 3.66090506 7.3218101 7.3218101 14.64362017 12.81316767 14.64362018h0.91522626c4.5761313-0.91522626 7.3218101-7.3218101 10.06748887-16.47407269 0.91522626-4.5761313 3.66090506-10.98271516 4.57613131-11.89794141 1.83045253 0 6.40658382 5.49135757 9.15226261 9.15226261 5.49135757 7.3218101 10.98271516 12.81316766 16.47407271 10.98271515 4.5761313-1.83045253 5.49135757-7.3218101 5.49135756-14.64362019 10.06748889 9.15226261 18.30452524 21.05020402 24.71110905 34.77859795 0.91522626 0.91522626 0.91522626 2.74567878 1.83045253 3.66090504l237.95882807 633.33657311c8.23703635 28.37201411-12.81316766 59.48970703-43.93086055 59.48970703z" fill="#FFFFFF" p-id="5732"></path><path d="M796.00327046 883.58186225H221.24117809c-5.49135757 0-10.98271516-0.91522626-15.55884646-2.74567879-3.66090506-9.15226261-3.66090506-20.13497775 0-31.11769288l237.95882805-633.33657312c5.49135757-15.55884645 14.64362017-28.37201411 24.71110906-37.52427673 0 5.49135757 1.83045253 10.98271516 7.32181009 12.81316768 4.5761313 0.91522626 8.23703635-3.66090506 14.64362021-10.06748889 2.74567878-3.66090506 8.23703635-10.06748889 10.06748887-10.0674889 0.91522626 0.91522626 3.66090506 7.3218101 4.57613131 10.98271516 2.74567878 9.15226261 4.5761313 16.4740727 10.06748887 17.38929898 4.5761313 0.91522626 8.23703635-5.49135757 12.81316767-13.72839393 1.83045253-3.66090506 5.49135757-10.06748889 7.3218101-10.98271515 1.83045253 0.91522626 4.5761313 7.3218101 6.40658382 10.98271515 3.66090506 7.3218101 7.3218101 14.64362017 12.81316767 14.64362021h0.91522625c4.5761313-0.91522626 7.3218101-7.3218101 10.06748889-16.47407274 0.91522626-4.5761313 3.66090506-10.98271516 4.5761313-11.89794139 1.83045253 0 6.40658382 5.49135757 9.15226262 9.15226261 5.49135757 7.3218101 10.98271516 12.81316766 16.47407272 10.98271516 2.74567878-0.91522626 3.66090506-2.74567878 4.5761313-5.49135759 0.91522626 0.91522626 0.91522626 2.74567878 1.83045254 3.66090505l237.95882803 633.3365731c8.23703635 28.37201411-12.81316766 59.48970703-43.93086054 59.48970701z" fill="#B7E2F9" p-id="5733"></path><path d="M776.78351896 873.51437339h-77.79423225c31.1176929 0 52.16789693-31.1176929 42.10040804-60.40493329L504.04609297 182.51854578c0.91522626-1.83045253 2.74567878-4.5761313 3.66090503-6.40658383 1.83045253-3.66090506 5.49135757-10.06748889 7.32181009-10.98271516 1.83045253 0.91522626 4.5761313 7.3218101 6.40658384 10.98271516 3.66090506 7.3218101 7.3218101 14.64362017 12.81316766 14.64362019h0.91522627c4.5761313-0.91522626 7.3218101-7.3218101 10.06748887-16.47407272 0.91522626-4.5761313 3.66090506-10.98271516 4.5761313-11.8979414 1.83045253 0 6.40658382 5.49135757 9.15226263 9.1522626 5.49135757 7.3218101 10.98271516 12.81316766 16.47407269 10.98271516 2.74567878-0.91522626 3.66090506-2.74567878 4.57613132-5.49135757 0.91522626 0.91522626 0.91522626 2.74567878 1.83045255 3.66090504l237.95882802 633.33657311c9.15226261 28.37201411-11.8979414 59.48970703-43.01563428 59.48970703z" fill="#54D8FC" p-id="5734"></path><path d="M793.25759166 751.78928057c-1.83045253 0-3.66090506-0.91522626-4.5761313-1.83045252-2.74567878-2.74567878-2.74567878-6.40658382-0.91522626-10.06748889 67.72674338-77.79423226-29.28724036-443.88473695-30.20246665-447.54564198-41.18518177-106.16624637-114.40328272-161.99504832-209.58681395-159.24936952H422.59095566c-96.09875748-2.74567878-168.40163216 53.08312319-210.50204019 160.1645958-0.91522626 2.74567878-97.01398373 368.83618346-29.28724039 446.6304157 2.74567878 2.74567878 1.83045253 7.3218101-0.91522625 10.06748889-2.74567878 2.74567878-7.3218101 1.83045253-10.06748889-0.91522629-72.30287467-83.28558982 22.88065653-444.7999632 26.5415616-460.35880961 45.76131308-112.57283019 122.64031907-171.14731093 225.14566039-168.40163216h125.38599785c101.59011504-2.74567878 179.3843473 55.82880198 223.31520785 168.40163216 4.5761313 16.4740727 99.75966253 377.9884461 27.45678787 461.2740359-2.74567878 0.91522626-4.5761313 1.83045253-6.40658384 1.83045252z" fill="#961919" p-id="5735"></path><path d="M485.74156775 287.76956588c-43.01563429 0-84.20081609-18.30452524-112.57283024-51.25267066l-2.74567876-2.74567879 21.05020401-55.82880194c5.49135757-15.55884645 14.64362017-29.28724036 26.54156159-40.26995554l10.98271516-10.06748886v15.55884645c0 4.5761313 0.91522626 6.40658382 1.83045251 6.40658381 1.83045253-0.91522626 5.49135757-5.49135757 7.32181009-8.23703635 8.23703635-10.06748889 10.98271516-11.8979414 14.64362019-12.81316767h2.74567877l2.7456788 1.83045252c0.91522626 0.91522626 3.66090506 2.74567878 6.40658382 14.6436202 0.91522626 3.66090506 2.74567878 10.06748889 4.57613133 11.8979414 1.83045253-1.83045253 4.5761313-6.40658382 6.40658381-9.15226262l0.91522627-1.83045253c4.5761313-8.23703635 6.40658382-10.98271516 9.15226265-11.8979414l2.74567876-1.83045251 2.7456788 1.83045251c2.74567878 1.83045253 4.5761313 4.5761313 10.06748886 13.72839393 1.83045253 3.66090506 4.5761313 9.15226261 6.40658383 10.06748887 1.83045253-1.83045253 2.74567878-7.3218101 3.66090506-10.98271513 3.66090506-10.06748889 4.5761313-13.72839391 6.40658382-15.55884646l2.74567879-1.83045252 3.66090505 0.91522626c3.66090506 0.91522626 6.40658382 3.66090506 12.81316767 10.98271515 2.74567878 2.74567878 6.40658382 7.3218101 8.23703634 9.15226261 0-0.91522626 0.91522626-3.66090506 0.91522626-8.23703635l0.91522625-14.64362017 10.98271516 9.1522626c12.81316766 10.98271516 21.96543027 24.71110907 28.37201412 41.1851818l0.91522626 2.74567876 18.30452522 48.50699187-2.74567877 2.74567879c-28.37201411 35.6938242-70.47242217 55.82880198-117.14896148 55.82880197z m-99.75966257-56.74402823c25.62633533 27.45678784 62.2353858 43.01563429 99.75966257 43.0156343 40.26995552 0 77.79423226-17.38929897 104.33579381-48.50699186l-16.47407271-43.01563431c-3.66090506-10.06748889-9.15226261-19.21975149-15.55884645-26.54156161-1.83045253 2.74567878-3.66090506 5.49135757-7.3218101 7.32181011-9.15226261 3.66090506-16.4740727-5.49135757-23.79588279-12.81316767l-0.91522628-0.91522626c0 0.91522626 0 0.91522626-0.91522625 1.83045252-2.74567878 10.06748889-6.40658382 20.13497775-15.55884644 21.05020404h-0.91522628c-9.15226261 0-13.72839391-9.15226261-18.30452522-18.30452525 0-0.91522626-0.91522626-0.91522626-0.91522626-1.83045251l-0.91522627 1.83045251c-5.49135757 9.15226261-10.06748889 18.30452524-20.13497777 16.47407272-10.06748889-0.91522626-12.81316766-11.8979414-15.55884644-21.96543028v-0.91522627c-0.91522626 0.91522626-0.91522626 1.83045253-1.83045252 1.83045252-6.40658382 7.3218101-12.81316766 15.55884645-21.96543027 12.81316767-2.74567878-0.91522626-6.40658382-2.74567878-8.23703637-6.40658385-6.40658382 7.3218101-11.8979414 16.4740727-15.55884645 26.54156161l-19.21975151 48.50699187z m98.84443626-86.0312686z m35.69382423-2.74567879z" fill="#961919" p-id="5736"></path><path d="M776.78351896 880.83618346H202.02142658c-16.4740727 0-32.94814542-8.23703635-42.10040803-21.96543025-9.15226261-13.72839391-11.8979414-31.1176929-5.49135756-46.67653936l128.13167662-341.37939562c0.91522626-3.66090506 5.49135757-5.49135757 9.15226262-3.66090505 3.66090506 0.91522626 5.49135757 5.49135757 3.66090505 9.15226262l-128.13167665 341.37939561c-4.5761313 11.8979414-2.74567878 23.79588279 4.57613131 34.77859797 7.3218101 10.06748889 18.30452524 16.4740727 31.11769291 16.4740727h574.76209235c12.81316766 0 23.79588279-5.49135757 31.11769291-16.4740727 7.3218101-10.06748889 8.23703635-22.88065653 4.57613131-34.77859797l-196.77364627-524.42464795c-27.45678784 44.84608682-75.96377974 73.21810095-129.0469029 73.2181009-50.33744441 0-97.01398373-24.71110907-124.4707716-66.81151706l-9.15226262 22.88065652c-0.91522626 3.66090506-5.49135757 5.49135757-9.15226263 3.66090505-3.66090506-0.91522626-5.49135757-5.49135757-3.66090504-9.15226262l19.21975149-50.33744438 7.3218101 12.81316764c23.79588279 43.93086055 70.47242217 71.38764842 119.8946403 71.38764842 53.08312319 0 101.59011504-31.1176929 123.55554534-78.7094585l7.3218101-14.6436202 207.75636139 553.71188834c5.49135757 15.55884645 3.66090506 32.94814542-5.49135757 47.59176564-11.8979414 13.72839391-26.54156159 21.96543027-43.93086055 21.96543025z" fill="#961919" p-id="5737"></path><path d="M320.08561435 394.85103851h-2.74567879c-3.66090506-0.91522626-5.49135757-5.49135757-3.66090505-9.15226262l15.55884646-41.1851818c0.91522626-3.66090506 5.49135757-5.49135757 9.15226261-3.66090502 3.66090506 0.91522626 5.49135757 5.49135757 3.66090506 9.15226261l-15.55884645 41.18518177c-0.91522626 1.83045253-3.66090506 3.66090506-6.40658384 3.66090506zM299.03541032 451.59506671h-2.74567875c-3.66090506-0.91522626-5.49135757-5.49135757-3.66090508-9.15226261l9.15226264-24.71110905c0.91522626-3.66090506 5.49135757-5.49135757 9.15226261-3.66090506 3.66090506 0.91522626 5.49135757 5.49135757 3.66090505 9.15226264l-9.15226262 24.71110906c-0.91522626 1.83045253-3.66090506 3.66090506-6.40658385 3.66090502z" fill="#961919" p-id="5738"></path><path d="M512.28312931 484.54321216l-68.64196963-0.91522627s-2.74567878-12.81316766 14.64362019-10.98271513c17.38929897 1.83045253 0 0 0 0l21.05020401 5.49135758 20.13497779-4.57613133c0-0.91522626 18.30452524 0.91522626 12.81316764 10.98271515z" fill="#FFFFFF" p-id="5739"></path><path d="M514.11358184 487.28889093l-73.21810095-0.91522626-0.91522627-2.74567878c-0.91522626-2.74567878 0-7.3218101 2.7456788-10.98271513 3.66090506-3.66090506 8.23703635-5.49135757 15.55884645-4.57613131l8.23703636 0.91522626v0.91522627l12.81316765 2.74567878 20.13497779-4.57613131h0.91522624c1.83045253 0 12.81316766 1.83045253 15.55884645 8.23703635 0.91522626 1.83045253 1.83045253 5.49135757-0.91522627 9.15226261l-0.91522625 1.83045252z m-33.8633717-7.32181009l29.2872404 0.91522626v-0.91522626c-0.91522626-1.83045253-6.40658382-3.66090506-10.06748887-3.66090504l-19.21975153 3.66090504z m-32.94814543 0l31.11769291 0.91522626-20.13497775-5.49135756c-4.5761313 0-8.23703635 0-10.0674889 1.83045252-0.91522626 0.91522626-0.91522626 1.83045253-0.91522626 2.74567878z" fill="#961919" p-id="5740"></path><path d="M512.28312931 484.54321216l-63.15061207-0.91522627s-1.83045253-10.06748889 10.06748889-10.98271513h5.49135756l18.30452523 4.5761313 2.74567883 0.91522628 18.30452522-3.66090505c3.66090506 0 11.8979414 2.74567878 8.23703634 10.06748887z" fill="#F9F18F" p-id="5741"></path><path d="M547.06172724 458.00165055l-67.72674336 21.05020403h-1.83045253L412.52346678 457.08642429l-1.83045252-0.91522627s-5.49135757-2.74567878-2.74567879-8.23703633c0.91522626-1.83045253 11.8979414-28.37201411 38.439503-38.439503 17.38929897-6.40658382 31.1176929-5.49135757 33.86337167-5.49135756 4.5761313 0 16.4740727 0 32.94814544 6.40658383 10.06748889 4.5761313 18.30452524 10.98271516 23.79588281 17.38929895 9.15226261 10.98271516 12.81316766 21.05020402 13.72839391 21.96543029 2.74567878 5.49135757-3.66090506 8.23703635-3.66090506 8.23703635z" fill="#FFFFFF" p-id="5742"></path><path d="M480.25021014 481.79753338h-3.66090504l-66.81151709-22.88065657c-0.91522626 0-3.66090506-1.83045253-5.49135757-5.49135757-0.91522626-1.83045253-0.91522626-4.5761313 0-8.23703634 2.74567878-7.3218101 14.64362017-30.20246662 40.26995552-40.26995552 17.38929897-6.40658382 30.20246662-6.40658382 33.86337166-6.40658383 14.64362017 0 26.54156159 3.66090506 34.77859796 7.32181008 9.15226261 3.66090506 18.30452524 10.06748889 25.62633532 18.30452525 7.3218101 9.15226261 11.8979414 18.30452524 13.72839392 22.88065653 1.83045253 3.66090506 0.91522626 6.40658382 0 8.23703636-1.83045253 3.66090506-5.49135757 4.5761313-5.49135758 5.49135755l-66.8115171 21.05020406zM478.41975762 475.39094954l67.72674337-20.13497777 1.83045251-1.83045253v-2.74567878c-1.83045253-4.5761313-5.49135757-12.81316766-12.81316764-21.05020401-6.40658382-7.3218101-14.64362017-13.72839391-22.88065655-16.47407272-7.3218101-2.74567878-18.30452524-6.40658382-31.11769291-6.40658383-4.5761313 0-16.4740727 0-32.03291916 5.49135757-23.79588279 9.15226261-34.77859794 32.03291916-36.60905046 36.60905047-0.91522626 0.91522626-0.91522626 1.83045253 0 2.74567877 0 0.91522626 1.83045253 1.83045253 1.83045253 1.83045253h0.91522625L478.41975762 475.39094954z m68.64196962-17.38929899z m0 0z" fill="#961919" p-id="5743"></path><path d="M547.06172724 458.00165055l-67.72674336 21.05020403h-1.83045253L412.52346678 457.08642429c0-0.91522626 0-1.83045253 0.91522627-3.66090505s11.8979414-28.37201411 38.43950298-38.43950297c17.38929897-6.40658382 31.1176929-5.49135757 33.86337172-5.49135758 4.5761313 0 16.4740727 0 32.94814541 6.40658383 7.3218101 2.74567878 13.72839391 7.3218101 18.30452523 11.89794139 9.15226261 10.98271516 12.81316766 21.05020402 13.72839391 21.96543029 2.74567878 5.49135757-3.66090506 8.23703635-3.66090506 8.23703635z" fill="#F9F18F" p-id="5744"></path><path d="M547.06172724 456.17119802l-67.72674336 21.05020404h-1.83045253l-64.98106457-21.96543029v-1.83045253l59.48970701 20.13497777h1.83045251l67.72674338-21.05020404s6.40658382-1.83045253 3.66090505-8.23703635c0-0.91522626-4.5761313-12.81316766-15.55884646-23.79588279 2.74567878 1.83045253 5.49135757 3.66090506 7.32181012 6.40658381 9.15226261 10.98271516 12.81316766 21.05020402 13.72839391 21.9654303 2.74567878 4.5761313-3.66090506 7.3218101-3.66090506 7.32181008z" fill="#F4DD58" p-id="5745"></path><path d="M479.33498388 480.8823071c-1.83045253 0-3.66090506-1.83045253-3.66090505-3.66090504l-1.83045253-74.1333272c0-1.83045253 1.83045253-3.66090506 3.66090505-3.66090505s3.66090506 1.83045253 3.66090505 3.66090505l1.83045252 74.1333272c0 1.83045253-1.83045253 2.74567878-3.66090504 3.66090504z" fill="#961919" p-id="5746"></path><path d="M479.33498388 480.8823071H478.41975762c-1.83045253-0.91522626-2.74567878-2.74567878-1.83045252-4.5761313l27.45678787-66.81151711c0.91522626-1.83045253 2.74567878-2.74567878 4.57613129-1.83045251 1.83045253 0.91522626 2.74567878 2.74567878 1.83045254 4.57613129l-27.45678788 66.81151711c-0.91522626 0.91522626-2.74567878 1.83045253-3.66090504 1.83045252z" fill="#961919" p-id="5747"></path><path d="M479.33498388 480.8823071c-0.91522626 0-2.74567878-0.91522626-2.74567878-1.83045252L444.55638596 411.32511119c-0.91522626-1.83045253 0-3.66090506 1.83045251-4.57613129 1.83045253-0.91522626 3.66090506 0 4.57613131 1.83045253l32.03291914 67.72674337c0.91522626 1.83045253 0 3.66090506-1.83045252 4.5761313-0.91522626-0.91522626-0.91522626 0-1.83045252 0z" fill="#961919" p-id="5748"></path><path d="M479.33498388 480.8823071c-0.91522626 0-1.83045253 0-2.74567878-0.91522626-0.91522626-1.83045253-0.91522626-3.66090506 0-4.5761313l57.65925449-49.42221816c1.83045253-0.91522626 3.66090506-0.91522626 4.57613131 0 0.91522626 1.83045253 0.91522626 3.66090506 0 4.57613132l-57.6592545 49.42221814s-0.91522626 0.91522626-1.83045252 0.91522626z" fill="#961919" p-id="5749"></path><path d="M479.33498388 480.8823071c-0.91522626 0-1.83045253 0-2.74567878-0.91522626l-55.82880196-51.25267066c-1.83045253-0.91522626-1.83045253-3.66090506 0-4.5761313 0.91522626-1.83045253 3.66090506-1.83045253 4.57613132 0l55.82880194 51.25267066c1.83045253 0.91522626 1.83045253 3.66090506 0 4.5761313 0 0-0.91522626 0.91522626-1.83045252 0.91522626z" fill="#961919" p-id="5750"></path><path d="M480.25021014 481.79753338h-3.66090504l-66.81151709-22.88065657c-0.91522626 0-3.66090506-1.83045253-5.49135757-5.49135757-0.91522626-1.83045253-0.91522626-4.5761313 0-8.23703634 2.74567878-7.3218101 14.64362017-30.20246662 40.26995552-40.26995552 17.38929897-6.40658382 30.20246662-6.40658382 33.86337166-6.40658383 14.64362017 0 26.54156159 3.66090506 34.77859796 7.32181008 9.15226261 3.66090506 16.4740727 9.15226261 22.88065653 16.47407272 10.06748889 10.98271516 14.64362017 21.96543027 16.47407271 25.62633534 1.83045253 3.66090506 0.91522626 6.40658382 0 8.23703633-1.83045253 3.66090506-5.49135757 4.5761313-5.49135758 5.49135757l-66.8115171 20.13497779zM478.41975762 475.39094954l67.72674337-20.13497777 1.83045251-1.83045253v-2.74567878c-0.91522626-2.74567878-5.49135757-13.72839391-14.64362017-22.88065655-6.40658382-6.40658382-12.81316766-10.98271516-21.05020402-14.64362018-7.3218101-2.74567878-18.30452524-6.40658382-31.11769291-6.40658383-4.5761313 0-16.4740727 0-32.03291916 5.49135757-23.79588279 9.15226261-34.77859794 32.03291916-36.60905046 36.60905047-0.91522626 0.91522626-0.91522626 1.83045253 0 2.74567877 0 0.91522626 1.83045253 1.83045253 1.83045253 1.83045253l64.06583831 21.9654303z m68.64196962-17.38929899z m0 0z" fill="#961919" p-id="5751"></path><path d="M512.28312931 484.54321216h-5.49135757c4.5761313-7.3218101-3.66090506-10.06748889-9.15226261-10.98271515l1.83045254-0.91522625s18.30452524 1.83045253 12.81316764 11.8979414z" fill="#F4DD58" p-id="5752"></path><path d="M514.11358184 487.28889093l-73.21810095-0.91522626-0.91522627-2.74567878c-0.91522626-2.74567878 0-7.3218101 2.7456788-10.98271513 3.66090506-3.66090506 8.23703635-5.49135757 15.55884645-4.57613131h0.91522626l19.21975149 4.57613131 20.13497777-4.57613131h0.91522628s1.83045253 0 3.66090504 0.91522626c6.40658382 1.83045253 10.98271516 3.66090506 11.89794138 7.32181009 0.91522626 1.83045253 0.91522626 4.5761313-0.91522625 9.15226261v1.83045252z m-33.8633717-7.32181009l29.2872404 0.91522626v-0.91522626c0-0.91522626-2.74567878-2.74567878-7.32181011-3.66090504h-2.74567876l-19.21975153 3.66090504z m-32.94814543 0l31.11769291 0.91522626-20.13497775-5.49135756c-4.5761313 0-8.23703635 0-10.0674889 1.83045252-0.91522626 0.91522626-0.91522626 1.83045253-0.91522626 2.74567878z" fill="#961919" p-id="5753"></path><path d="" fill="#F9F18F" p-id="5754"></path><path d="M478.41975762 493.69547476c-4.5761313 0-8.23703635-3.66090506-8.23703635-8.23703635 0-1.83045253 0.91522626-4.5761313 1.83045252-5.49135757 1.83045253-1.83045253 3.66090506-2.74567878 5.49135756-2.74567878 4.5761313 0 8.23703635 3.66090506 7.32181009 8.23703635 0 1.83045253-0.91522626 4.5761313-1.83045252 5.49135757 0 1.83045253-1.83045253 2.74567878-4.5761313 2.74567878z m0-10.06748887c-0.91522626 0-0.91522626 0.91522626-0.91522627 1.83045252s0.91522626 1.83045253 0.91522627 1.83045252c0.91522626 0 0.91522626-0.91522626 0.91522626-1.83045252s-0.91522626-1.83045253-0.91522626-1.83045252z m-4.57613132 1.83045252z" fill="#961919" p-id="5755"></path><path d="M562.62057369 761.85676946l-173.89298971-2.74567878s-7.3218101-32.94814542 38.43950298-28.37201414c44.84608682 4.5761313 0 0 0 0l53.08312318 12.81316766 51.25267066-11.89794138c-0.91522626 0 46.67653934 4.5761313 31.11769289 30.20246664z" fill="#FFFFFF" p-id="5756"></path><path d="M564.45102623 765.51767451l-178.46912105-2.74567879-0.91522626-2.74567878c0-0.91522626-2.74567878-13.72839391 6.40658384-22.88065657 7.3218101-8.23703635 19.21975149-10.98271516 35.6938242-9.1522626l20.13497775 1.83045252v2.74567877l32.94814543 8.23703635 51.25267066-11.89794139h0.91522627c2.74567878 0 29.28724036 3.66090506 36.60905046 17.38929899 2.74567878 5.49135757 1.83045253 11.8979414-1.83045254 18.30452522l-2.74567876 0.91522628z m-172.97776347-10.06748888l169.31685841 2.74567876c1.83045253-3.66090506 1.83045253-7.3218101 0.91522627-10.06748889-4.5761313-8.23703635-22.88065653-12.81316766-30.20246664-12.81316765l-51.25267066 11.89794141-53.08312318-12.81316767c-14.64362017-0.91522626-24.71110907 0.91522626-30.20246661 7.32181011-5.49135757 3.66090506-5.49135757 10.06748889-5.49135759 13.72839393z" fill="#961919" p-id="5757"></path><path d="M562.62057369 761.85676946l-160.16459578-2.74567878s-5.49135757-25.62633533 24.71110905-28.37201414h12.81316766l45.76131313 10.98271516 7.32181006 1.8304525 46.67653934-10.06748887c12.81316766 2.74567878 33.86337166 10.06748889 22.88065654 28.37201413z" fill="#F9F18F" p-id="5758"></path><path d="M651.3975211 694.13002608l-171.14731096 52.16789693h-4.57613131l-165.65595335-56.74402824-3.66090504-0.91522626s-14.64362017-5.49135757-8.23703637-21.96543028c1.83045253-3.66090506 29.28724036-72.30287467 98.84443628-97.92921 44.84608682-16.4740727 77.79423226-14.64362017 85.1160423-14.64362021 10.98271516 0 42.10040802 0.91522626 82.37036358 17.38929901 26.54156159 10.98271516 46.67653934 28.37201411 61.32015954 44.84608679 22.88065653 26.54156159 32.94814542 53.99834945 33.86337167 55.828802 7.3218101 16.4740727-8.23703635 21.96543027-8.23703634 21.96543026z" fill="#FFFFFF" p-id="5759"></path><path d="M481.1654364 750.8740543h-6.40658383l-169.3168584-57.65925448c-0.91522626 0-8.23703635-2.74567878-10.98271514-10.98271514-1.83045253-4.5761313-1.83045253-10.06748889 0.91522625-16.47407271 5.49135757-12.81316766 34.77859794-75.04855346 100.67488882-99.75966252 43.01563429-16.4740727 75.04855346-15.55884645 85.1160423-14.64362021h1.83045252c33.86337166 0 64.06583831 10.06748889 84.20081607 17.38929899 23.79588279 9.15226261 44.84608682 24.71110907 62.23538582 45.76131308 19.21975149 22.88065653 30.20246662 44.84608682 34.77859794 55.82880199 2.74567878 6.40658382 2.74567878 11.8979414 0.91522625 16.47407271-3.66090506 7.3218101-10.98271516 10.06748889-10.98271512 10.06748886l-172.97776348 53.99834943z m-4.5761313-7.3218101h3.66090504l170.23208468-52.1678969c0.91522626 0 5.49135757-1.83045253 7.32181009-6.40658382 0.91522626-2.74567878 0.91522626-6.40658382-0.91522626-10.98271516-3.66090506-9.15226261-13.72839391-32.03291916-33.86337167-54.9135757-17.38929897-20.13497775-37.52427671-34.77859794-59.48970703-43.93086056-19.21975149-8.23703635-48.50699189-17.38929897-81.4551373-17.38929898h-1.83045251c-10.06748889 0-41.18518177-0.91522626-82.37036354 14.64362021-62.2353858 23.79588279-91.52262617 83.28558982-96.09875747 95.18353122-1.83045253 4.5761313-2.74567878 8.23703635-0.91522629 10.98271513 1.83045253 4.5761313 6.40658382 6.40658382 7.32181012 6.40658384l3.66090504 0.91522625 164.7407271 57.65925447z m174.808216-49.42221812z m0 0z" fill="#961919" p-id="5760"></path><path d="M651.3975211 694.13002608l-171.14731096 52.16789693h-4.57613131l-165.65595335-56.74402824c0-2.74567878 0-5.49135757 1.83045252-9.15226261s29.28724036-72.30287467 98.84443626-97.92920999c44.84608682-16.4740727 77.79423226-14.64362017 85.11604236-14.64362019 10.98271516 0 42.10040802 0.91522626 82.37036353 17.38929897 19.21975149 8.23703635 34.77859794 19.21975149 47.59176562 31.11769287 22.88065653 26.54156159 32.94814542 53.99834945 33.86337167 55.828802 7.3218101 16.4740727-8.23703635 21.96543027-8.23703634 21.96543026z" fill="#F9F18F" p-id="5761"></path><path d="M651.3975211 689.55389477l-171.14731096 52.16789693h-4.57613131L310.01812548 685.89298973v-4.57613131l151.01233318 52.16789691h4.57613129l171.14731095-52.16789691s15.55884645-5.49135757 8.23703634-21.96543027c-0.91522626-2.74567878-12.81316766-32.94814542-39.35472924-61.32015953 7.3218101 4.5761313 12.81316766 10.06748889 19.2197515 15.55884642 22.88065653 26.54156159 32.94814542 53.99834945 33.86337169 55.82880198 8.23703635 14.64362017-7.3218101 20.13497775-7.32181009 20.13497775z" fill="#F4DD58" p-id="5762"></path><path d="M479.33498388 746.29792301c-1.83045253 0-3.66090506-1.83045253-3.66090505-3.66090507l-4.5761313-188.53660992c0-1.83045253 1.83045253-3.66090506 3.66090504-3.66090503s3.66090506 1.83045253 3.66090505 3.66090503l4.5761313 188.53660992c0 2.74567878-1.83045253 3.66090506-3.66090504 3.66090507z" fill="#961919" p-id="5763"></path><path d="M479.33498388 746.29792301H478.41975762c-1.83045253-0.91522626-2.74567878-2.74567878-1.83045252-4.57613131l70.47242214-170.23208467c0.91522626-1.83045253 2.74567878-2.74567878 4.57613133-1.83045253 1.83045253 0.91522626 2.74567878 2.74567878 1.83045251 4.5761313l-70.47242216 170.23208469c-0.91522626 1.83045253-1.83045253 1.83045253-3.66090504 1.83045252z" fill="#961919" p-id="5764"></path><path d="M479.33498388 746.29792301c-0.91522626 0-2.74567878-0.91522626-2.74567878-1.83045252L396.0493941 571.48970703c-0.91522626-1.83045253 0-3.66090506 1.8304525-4.57613132 1.83045253-0.91522626 3.66090506 0 4.57613131 1.83045252l80.53991101 172.97776347c0.91522626 1.83045253 0 3.66090506-1.83045252 4.57613131h-1.83045252z" fill="#961919" p-id="5765"></path><path d="M479.33498388 746.29792301c-0.91522626 0-1.83045253 0-2.74567878-0.91522625-0.91522626-1.83045253-0.91522626-3.66090506 0-4.57613135l145.5209756-126.3012241c1.83045253-0.91522626 3.66090506-0.91522626 4.57613134 0s0.91522626 3.66090506 0 4.57613131l-145.52097564 126.30122414c0 0.91522626-0.91522626 0.91522626-1.83045252 0.91522625z" fill="#961919" p-id="5766"></path><path d="M479.33498388 746.29792301c-0.91522626 0-1.83045253 0-2.74567878-0.91522625l-141.86007056-130.87735545c-1.83045253-0.91522626-1.83045253-3.66090506 0-4.5761313 0.91522626-1.83045253 3.66090506-1.83045253 4.57613131 0L482.08066265 740.80656541c1.83045253 0.91522626 1.83045253 3.66090506 0 4.57613135-0.91522626 0.91522626-1.83045253 0.91522626-2.74567877 0.91522625z" fill="#961919" p-id="5767"></path><path d="M481.1654364 750.8740543h-6.40658383l-169.3168584-57.65925448c-0.91522626 0-8.23703635-2.74567878-10.98271514-10.98271514-1.83045253-4.5761313-1.83045253-10.06748889 0.91522625-16.47407271 5.49135757-12.81316766 34.77859794-75.04855346 100.67488882-99.75966252 43.01563429-16.4740727 75.04855346-15.55884645 85.1160423-14.64362021h1.83045252c33.86337166 0 64.06583831 10.06748889 84.20081607 17.38929899 21.05020402 9.15226261 40.26995552 21.96543027 57.65925451 40.2699555 24.71110907 26.54156159 36.60905046 53.99834945 40.2699555 62.23538583 2.74567878 6.40658382 2.74567878 11.8979414 0.91522627 16.47407269-3.66090506 7.3218101-10.98271516 10.06748889-10.98271515 10.06748888l-173.89298972 53.08312317z m-4.5761313-7.3218101h3.66090504l170.23208468-52.1678969c0.91522626 0 5.49135757-1.83045253 7.32181009-6.40658382 0.91522626-2.74567878 0.91522626-6.40658382-0.91522626-10.98271516-2.74567878-8.23703635-14.64362017-34.77859794-38.43950296-60.40493328-15.55884645-17.38929897-34.77859794-30.20246662-54.91357574-38.43950298-19.21975149-7.3218101-48.50699189-17.38929897-81.4551373-17.38929898h-1.83045251c-10.06748889 0-41.18518177-0.91522626-82.37036354 14.64362021-62.2353858 23.79588279-91.52262617 83.28558982-96.09875747 95.18353122-1.83045253 4.5761313-2.74567878 8.23703635-0.91522629 10.98271513 1.83045253 4.5761313 6.40658382 6.40658382 7.32181012 6.40658384l18.30452523 6.40658382 150.09710691 52.1678969z m174.808216-49.42221812z m0 0z" fill="#961919" p-id="5768"></path><path d="M562.62057369 761.85676946h-13.72839391c10.98271516-18.30452524-10.06748889-25.62633533-22.88065655-28.37201413l5.49135757-0.91522627c-0.91522626-0.91522626 46.67653934 3.66090506 31.11769289 29.2872404z" fill="#F4DD58" p-id="5769"></path><path d="M564.45102623 765.51767451l-178.46912105-2.74567879-0.91522626-2.74567878c0-0.91522626-2.74567878-13.72839391 6.40658384-22.88065657 7.3218101-8.23703635 19.21975149-10.98271516 35.6938242-9.1522626h0.91522627l51.25267065 12.81316764 51.25267067-11.89794139h0.91522625s3.66090506 0 9.15226263 1.83045252c15.55884645 3.66090506 24.71110907 9.15226261 27.45678784 16.47407272 1.83045253 5.49135757 1.83045253 10.98271516-2.74567878 17.38929897l-0.91522626 0.91522628z m-172.97776347-10.06748888l169.31685841 2.74567876c1.83045253-3.66090506 1.83045253-6.40658382 0.91522627-9.15226263-1.83045253-5.49135757-10.06748889-10.06748889-22.88065654-12.81316764-3.66090506-0.91522626-6.40658382-0.91522626-7.3218101-0.91522627l-51.25267066 11.89794141-53.08312318-12.81316767c-14.64362017-1.83045253-24.71110907 0.91522626-30.20246661 7.32181011-5.49135757 3.66090506-5.49135757 10.06748889-5.49135759 13.72839393z" fill="#961919" p-id="5770"></path><path d="" fill="#F9F18F" p-id="5771"></path><path d="M477.50453135 781.07652095c-4.5761313 0-8.23703635-1.83045253-10.98271512-5.49135756-2.74567878-2.74567878-3.66090506-7.3218101-3.66090507-10.98271516 0-4.5761313 1.83045253-8.23703635 4.57613131-10.98271513 2.74567878-2.74567878 6.40658382-4.5761313 10.98271515-4.57613134 8.23703635 0 14.64362017 7.3218101 14.64362019 16.47407275 0 4.5761313-1.83045253 8.23703635-4.5761313 10.98271513-2.74567878 2.74567878-6.40658382 4.5761313-10.98271516 4.57613131z m0-25.62633532c-1.83045253 0-3.66090506 0.91522626-5.49135756 2.74567876-1.83045253 1.83045253-2.74567878 4.5761313-2.74567877 6.40658384 0 2.74567878 0.91522626 5.49135757 2.74567877 7.3218101 1.83045253 1.83045253 3.66090506 2.74567878 5.49135756 2.7456788 1.83045253 0 3.66090506-0.91522626 5.49135757-2.7456788 1.83045253-1.83045253 2.74567878-4.5761313 2.74567883-6.40658382 0-5.49135757-3.66090506-10.06748889-8.2370364-10.06748888z m-10.98271512 9.1522626z" fill="#961919" p-id="5772"></path><path d="M615.70369688 274.95639824c-22.88065653 48.50699189-72.30287467 82.37036355-129.96212913 82.37036353-15.55884645 0-30.20246662-2.74567878-44.84608686-7.32181009-34.77859794-10.98271516-64.06583831-35.6938242-82.37036357-67.72674338l19.2197515-50.33744439c10.06748889 10.98271516 21.96543027 21.05020402 34.77859796 28.37201412 9.15226261 5.49135757 18.30452524 10.06748889 28.37201411 12.81316767 13.72839391 4.5761313 28.37201411 7.3218101 43.93086055 7.3218101 44.84608682 0 86.03126862-21.05020402 111.65760395-53.99834945l15.55884644 42.10040802 3.66090505 6.40658387z" fill="#FFFFFF" p-id="5773"></path><path d="M485.74156775 364.64857185c-15.55884645 0-31.1176929-2.74567878-46.67653937-7.32181008-36.60905046-11.8979414-67.72674338-37.52427671-86.03126862-71.38764842l-0.91522625-2.74567876 23.7958828-64.06583834 7.32181008 8.23703636c10.06748889 10.98271516 21.05020402 20.13497775 32.94814545 27.45678783 8.23703635 5.49135757 18.30452524 9.15226261 27.45678784 12.81316769 13.72839391 4.5761313 27.45678784 6.40658382 42.10040807 6.40658382 42.10040802 0 80.53991103-18.30452524 107.08147261-51.25267064l7.32181007-9.15226264 22.88065655 62.23538583-0.91522628 2.74567874c-24.71110907 52.16789693-77.79423226 86.03126862-136.36871295 86.03126861z m-118.0641878-83.28558979c17.38929897 29.28724036 43.93086055 51.25267068 76.87900601 62.23538578 13.72839391 4.5761313 27.45678784 6.40658382 42.10040803 6.40658384 52.16789693 0 99.75966253-29.28724036 122.64031908-75.96377973l-12.81316768-34.77859794c-28.37201411 30.20246662-67.72674338 47.59176558-109.8271514 47.59176562-15.55884645 0-31.1176929-2.74567878-46.67653937-7.32181012-10.06748889-3.66090506-21.05020402-8.23703635-30.20246661-13.7283939-10.06748889-6.40658382-20.13497775-13.72839391-28.37201414-21.9654303l-13.72839392 37.52427675z" fill="#961919" p-id="5774"></path><path d="M625.77118577 285.02388711c-22.88065653 48.50699189-72.30287467 82.37036355-129.96212915 82.37036354-15.55884645 0-30.20246662-2.74567878-44.84608684-7.32181011-18.30452524-12.81316766-32.94814542-29.28724036-43.93086056-49.42221811l15.55884644-40.26995553 3.66090505-9.15226262c7.3218101 8.23703635 15.55884645 16.4740727 25.62633532 22.88065656 22.88065653 16.4740727 51.25267068 25.62633533 82.37036356 25.62633532 33.86337166 0 64.98106459-11.8979414 89.69217365-31.11769292l1.83045253 6.40658387z" fill="#FFC773" p-id="5775"></path><path d="M615.70369688 274.95639824c-22.88065653 48.50699189-72.30287467 82.37036355-129.96212913 82.37036353-15.55884645 0-30.20246662-2.74567878-44.84608686-7.32181009-0.91522626-0.91522626-2.74567878-1.83045253-3.66090504-2.74567879 39.35472924-2.74567878 74.1333272-20.13497775 97.92921001-48.50699187 29.28724036-2.74567878 55.82880198-13.72839391 77.79423224-31.11769289l2.74567878 7.32181011z" fill="#FF9C31" p-id="5776"></path><path d="M485.74156775 364.64857185c-15.55884645 0-31.1176929-2.74567878-46.67653937-7.32181008-36.60905046-11.8979414-67.72674338-37.52427671-86.03126862-71.38764842l-0.91522625-2.74567876 23.7958828-64.06583834 7.32181008 8.23703636c10.06748889 10.98271516 21.05020402 20.13497775 32.94814545 27.45678783 8.23703635 5.49135757 18.30452524 9.15226261 27.45678784 12.81316769 8.23703635 2.74567878 15.55884645 4.5761313 23.79588279 5.49135757 8.23703635 0.91522626 17.38929897 1.83045253 26.54156162 0.91522625 38.43950299-2.74567878 74.1333272-21.05020402 97.92921-51.25267064l7.3218101-9.15226264 22.88065651 62.23538583-0.91522625 2.74567874c-6.40658382 12.81316766-14.64362017 24.71110907-23.79588281 35.69382424-26.54156159 30.20246662-63.15061206 47.59176558-102.5053413 50.33744437h-9.15226259z m-118.0641878-83.28558979c17.38929897 29.28724036 43.93086055 51.25267068 76.87900601 62.23538578 16.4740727 5.49135757 33.86337166 7.3218101 51.25267066 6.40658384 35.6938242-2.74567878 69.5571959-18.30452524 93.35307869-45.7613131 8.23703635-9.15226261 14.64362017-19.21975149 20.13497776-30.20246663l-12.81316768-33.86337168c-25.62633533 27.45678784-62.2353858 44.84608682-99.75966252 46.67653936-9.15226261 0.91522626-20.13497775 0-29.2872404-0.91522628s-17.38929897-2.74567878-26.54156158-5.49135755c-10.06748889-3.66090506-21.05020402-8.23703635-30.20246663-13.72839393-10.06748889-6.40658382-20.13497775-13.72839391-28.37201412-21.9654303l-14.64362019 36.60905049z" fill="#961919" p-id="5777"></path></svg>